<?xml version="1.0" encoding="utf-8"?>
<!-- Generator: Adobe Illustrator 24.0.2, SVG Export Plug-In . SVG Version: 6.00 Build 0)  -->
<svg version="1.0" id="Layer_1" xmlns="http://www.w3.org/2000/svg" xmlns:xlink="http://www.w3.org/1999/xlink" x="0px" y="0px"
	 viewBox="0 0 300 280" enable-background="new 0 0 300 280" xml:space="preserve">
<g>
	<circle fill="#5392CC" cx="189.45" cy="62.29" r="5.97"/>
	<circle fill="#5392CC" cx="183.6" cy="84.13" r="3.97"/>
	<circle fill="#5392CC" cx="179.03" cy="101.19" r="2.72"/>
	<circle fill="#5392CC" cx="175.47" cy="114.48" r="1.79"/>
	<circle fill="#5392CC" cx="208.86" cy="70.33" r="5.97"/>
	<circle fill="#5392CC" cx="197.55" cy="89.91" r="3.97"/>
	<circle fill="#5392CC" cx="188.72" cy="105.21" r="2.72"/>
	<circle fill="#5392CC" cx="181.84" cy="117.12" r="1.79"/>
	<circle fill="#1D3F75" cx="225.52" cy="83.11" r="7.19"/>
	<circle fill="#1D3F75" cx="209.53" cy="99.1" r="4.7"/>
	<circle fill="#1D3F75" cx="197.04" cy="111.59" r="2.72"/>
	<circle fill="#1D3F75" cx="187.31" cy="121.32" r="1.79"/>
	<circle fill="#1D3F75" cx="238.31" cy="99.77" r="8.15"/>
	<circle fill="#1D3F75" cx="218.73" cy="111.08" r="5.06"/>
	<circle fill="#1D3F75" cx="203.43" cy="119.91" r="4.16"/>
	<circle fill="#1D3F75" cx="191.51" cy="126.79" r="1.79"/>
	<circle fill="#1D3F75" cx="246.34" cy="119.18" r="8.68"/>
	<circle fill="#1D3F75" cx="224.51" cy="125.03" r="5.47"/>
	<circle fill="#1D3F75" cx="207.44" cy="129.6" r="4.36"/>
	<circle fill="#1D3F75" cx="194.15" cy="133.16" r="2.7"/>
	<circle fill="#6974AC" cx="249.08" cy="140" r="9.19"/>
	<circle fill="#6974AC" cx="226.48" cy="140" r="6.35"/>
	<circle fill="#6974AC" cx="208.81" cy="140" r="4.6"/>
	<circle fill="#6974AC" cx="195.05" cy="140" r="3.02"/>
	<circle fill="#6974AC" cx="238.31" cy="180.23" r="7.76"/>
	<circle fill="#6974AC" cx="218.73" cy="168.92" r="5.77"/>
	<circle fill="#6974AC" cx="203.43" cy="160.09" r="4.01"/>
	<circle fill="#6974AC" cx="191.51" cy="153.21" r="1.79"/>
	<circle fill="#B71E72" cx="225.52" cy="196.89" r="7.31"/>
	<circle fill="#B71E72" cx="209.53" cy="180.9" r="5.22"/>
	<circle fill="#B71E72" cx="197.04" cy="168.41" r="3.66"/>
	<circle fill="#B71E72" cx="187.31" cy="158.68" r="1.79"/>
	<circle fill="#B71E72" cx="208.86" cy="209.67" r="6.85"/>
	<circle fill="#B71E72" cx="197.55" cy="190.09" r="4.88"/>
	<circle fill="#B71E72" cx="188.72" cy="174.79" r="2.72"/>
	<circle fill="#B71E72" cx="181.84" cy="162.88" r="1.79"/>
	<circle fill="#D7595B" cx="189.45" cy="217.71" r="5.97"/>
	<circle fill="#D7595B" cx="183.6" cy="195.87" r="3.97"/>
	<circle fill="#D7595B" cx="179.03" cy="178.81" r="2.72"/>
	<circle fill="#D7595B" cx="175.47" cy="165.52" r="1.79"/>
	<circle fill="#D7595B" cx="168.63" cy="220.45" r="5.97"/>
	<circle fill="#D7595B" cx="168.63" cy="197.84" r="3.97"/>
	<circle fill="#D7595B" cx="168.63" cy="180.18" r="2.72"/>
	<circle fill="#D7595B" cx="168.63" cy="166.42" r="1.79"/>
	<circle fill="#F99D2D" cx="147.81" cy="217.71" r="5.97"/>
	<circle fill="#F99D2D" cx="153.66" cy="195.87" r="3.97"/>
	<circle fill="#F99D2D" cx="158.23" cy="178.81" r="2.72"/>
	<circle fill="#F99D2D" cx="161.79" cy="165.52" r="1.5"/>
	<circle fill="#F99D2D" cx="128.41" cy="209.67" r="5.24"/>
	<circle fill="#F99D2D" cx="139.71" cy="190.09" r="3.26"/>
	<circle fill="#F99D2D" cx="148.54" cy="174.79" r="2.4"/>
	<circle fill="#F99D2D" cx="155.42" cy="162.88" r="1.43"/>
	<circle fill="#FEC71D" cx="111.74" cy="196.89" r="4.8"/>
	<circle fill="#FEC71D" cx="127.73" cy="180.9" r="2.81"/>
	<circle fill="#FEC71D" cx="140.22" cy="168.41" r="1.93"/>
	<circle fill="#FEC71D" cx="98.96" cy="180.23" r="4.65"/>
	<circle fill="#FEC71D" cx="118.54" cy="168.92" r="2.29"/>
	<circle fill="#FEC71D" cx="133.84" cy="160.09" r="1.94"/>
	<circle fill="#83C564" cx="90.92" cy="119.18" r="4.19"/>
	<circle fill="#83C564" cx="98.96" cy="99.77" r="4.19"/>
	<circle fill="#83C564" cx="118.54" cy="111.08" r="2.4"/>
	<circle fill="#83C564" cx="133.84" cy="119.91" r="1.9"/>
	<circle fill="#11B281" cx="111.74" cy="83.11" r="4.43"/>
	<circle fill="#11B281" cx="127.73" cy="99.1" r="2.84"/>
	<circle fill="#11B281" cx="140.22" cy="111.59" r="2.15"/>
	<circle fill="#11B281" cx="128.41" cy="70.33" r="5.25"/>
	<circle fill="#11B281" cx="139.71" cy="89.91" r="3.29"/>
	<circle fill="#11B281" cx="148.54" cy="105.21" r="2.37"/>
	<circle fill="#11B281" cx="155.42" cy="117.12" r="1.3"/>
	<circle fill="#11B281" cx="147.81" cy="62.29" r="5.6"/>
	<circle fill="#11B281" cx="153.66" cy="84.13" r="3.42"/>
	<circle fill="#11B281" cx="158.23" cy="101.19" r="2.72"/>
	<circle fill="#11B281" cx="161.79" cy="114.48" r="1.47"/>
	<circle fill="#5392CC" cx="168.63" cy="59.55" r="5.97"/>
	<circle fill="#5392CC" cx="168.63" cy="82.16" r="3.97"/>
	<circle fill="#5392CC" cx="168.63" cy="99.82" r="2.72"/>
	<circle fill="#5392CC" cx="168.63" cy="113.58" r="1.79"/>
	<circle fill="#6974AC" cx="246.34" cy="160.82" r="8.68"/>
	<circle fill="#6974AC" cx="224.51" cy="154.97" r="5.88"/>
	<circle fill="#6974AC" cx="207.44" cy="150.4" r="4.27"/>
	<circle fill="#6974AC" cx="194.15" cy="146.84" r="2.72"/>
	<g>
		<path fill="#34205B" d="M107.92,154.32c0,4.08-0.08,7.95,0.03,11.81c0.06,2.07-0.53,2.89-2.75,2.85
			c-4.81-0.08-4.81,0.04-4.81-4.75c0-10.81-0.04-21.63,0.05-32.44c0.01-1.41-1.1-3.49,1.28-4.15c2.29-0.64,3.66,0.52,4.19,3.01
			c3.11-2.55,6.32-4.18,10.18-3.81c2.93,0.28,5.49,1.47,7.63,3.51c4.83,4.6,5.87,12.29,2.49,18.31
			C122.79,154.75,116.98,156.63,107.92,154.32z M107.92,140.95c0,6.66,1.26,8.16,6.09,7.71c3.02-0.28,5.06-1.98,6.08-4.85
			c1.09-3.09,0.48-5.87-1.76-8.19c-1.95-2.02-4.34-2.53-7.01-1.55C107.55,135.43,107.7,138.53,107.92,140.95z"/>
		<path fill="#34205B" d="M52.86,141.34c2.33-4.44,4.39-8.39,6.45-12.33c0.51-0.98,0.86-2.25,2.24-2.21
			c1.35,0.04,1.68,1.3,2.19,2.28c2.06,3.94,4.13,7.87,6.43,12.25c1.34-4.09,2.5-7.66,3.69-11.23c0.71-2.14,5.12-3.59,7.02-2.35
			c0.84,0.55,0.48,1.22,0.27,1.88c-2.57,7.95-5.15,15.91-7.73,23.86c-0.28,0.87-0.51,1.84-1.65,1.95c-1.26,0.12-1.74-0.82-2.23-1.75
			c-2.58-4.96-5.18-9.92-8.02-15.34c-2.69,5.12-5.15,9.85-7.66,14.56c-0.6,1.12-0.9,2.73-2.66,2.5c-1.56-0.21-1.51-1.75-1.87-2.86
			c-2.44-7.46-4.76-14.96-7.3-22.39c-0.76-2.21-0.12-2.5,1.94-2.68c3.26-0.29,5.06,0.63,5.75,4.08
			C50.36,134.71,51.66,137.71,52.86,141.34z"/>
		<path fill="#34205B" d="M167.93,155.44c-7.67,0.07-14.1-6.47-14.09-14.33c0.01-7.75,6.26-14.22,13.82-14.32
			c7.62-0.1,14.11,6.51,14.1,14.35C181.76,148.87,175.47,155.37,167.93,155.44z M174.98,141.05c-0.06-4.08-3.49-7.6-7.33-7.5
			c-3.87,0.1-7.17,3.76-7.03,7.79c0.14,3.98,3.42,7.33,7.17,7.34C171.63,148.68,175.03,145.07,174.98,141.05z"/>
		<path fill="#34205B" d="M139.16,130.92c3.2-3.28,6.5-4.81,10.55-3.87c1.34,0.31,3.41,0.62,2.5,2.51c-0.8,1.67-0.29,4.92-3.86,4.41
			c-5.24-0.75-6.96,0.74-6.96,5.82c0,4.08-0.08,8.16,0.03,12.24c0.06,2.03-0.73,2.64-2.69,2.66c-4.95,0.05-4.94,0.13-4.94-4.94
			c0-6.02-0.07-12.04,0.05-18.05c0.03-1.42-1.05-3.51,1.39-4.09C137.5,127.07,138.95,128.05,139.16,130.92z"/>
		<path fill="#34205B" d="M93.71,140.97c0,3.67-0.08,7.34,0.03,11.01c0.06,1.94-0.53,2.9-2.59,2.69c-0.91-0.09-1.83-0.05-2.75-0.01
			c-1.5,0.08-2.24-0.48-2.23-2.1c0.04-7.64,0.03-15.29,0.01-22.93c-0.01-1.39,0.52-2.1,1.95-2.07c1.12,0.03,2.25,0.06,3.36-0.01
			c1.78-0.11,2.27,0.77,2.24,2.41C93.66,133.63,93.71,137.3,93.71,140.97z"/>
	</g>
</g>
</svg>
